<?xml version="1.0" encoding="iso-8859-1"?>
<!-- Uploaded to: SVG Repo, www.svgrepo.com, Generator: SVG Repo Mixer Tools -->
<svg height="800px" width="800px" version="1.1" id="Layer_1" xmlns="http://www.w3.org/2000/svg" xmlns:xlink="http://www.w3.org/1999/xlink" 
	 viewBox="0 0 512 512" xml:space="preserve">
<path style="fill:#8AE9FF;" d="M406.274,318.388c-6.251-6.252-14.574-9.694-23.435-9.694c-8.86,0-17.183,3.442-23.434,9.694
	l-70.263,70.263V43.339c0-18.274-14.867-33.14-33.141-33.14s-33.141,14.866-33.141,33.14v345.311l-70.263-70.263
	c-12.921-12.921-33.946-12.921-46.868-0.001c-6.259,6.259-9.707,14.582-9.707,23.435c0,8.852,3.447,17.174,9.707,23.433
	l126.838,126.838c6.259,6.261,14.582,9.709,23.435,9.709s17.175-3.447,23.435-9.708l126.838-126.837
	c6.259-6.259,9.707-14.582,9.707-23.434C415.98,332.968,412.533,324.647,406.274,318.388z"/>
<g>
	<path style="fill:#248A9C;" d="M256.001,512c-11.579,0-22.463-4.509-30.648-12.696L98.516,372.467
		c-8.186-8.185-12.694-19.068-12.694-30.646s4.508-22.461,12.694-30.648c16.9-16.897,44.395-16.895,61.292,0.001l52.852,52.852
		V43.339C212.66,19.443,232.103,0,256.001,0c23.898,0,43.34,19.443,43.34,43.339v320.688l52.852-52.852
		c8.177-8.178,19.06-12.682,30.646-12.682c11.585,0,22.469,4.504,30.646,12.682l0,0c0.001,0.001,0.001,0.001,0.001,0.001
		c8.185,8.185,12.693,19.068,12.693,30.646c0,11.577-4.508,22.46-12.694,30.647L286.647,499.305
		C278.463,507.491,267.58,512,256.001,512z M129.162,318.891c-5.875,0-11.751,2.236-16.223,6.708
		c-4.333,4.332-6.719,10.093-6.719,16.222c0,6.128,2.387,11.888,6.719,16.221l126.838,126.837
		c4.333,4.335,10.093,6.721,16.223,6.721s11.89-2.387,16.222-6.72l126.838-126.837c4.334-4.333,6.72-10.094,6.72-16.222
		c0-6.129-2.387-11.889-6.719-16.222c0,0,0,0-0.001-0.001c-4.323-4.324-10.085-6.706-16.222-6.706
		c-6.137,0-11.897,2.382-16.222,6.707l-70.264,70.263c-2.917,2.918-7.305,3.789-11.114,2.21c-3.811-1.578-6.296-5.296-6.296-9.422
		V43.339c0-12.649-10.292-22.941-22.942-22.941s-22.942,10.292-22.942,22.941v345.311c0,4.126-2.486,7.844-6.296,9.422
		c-3.81,1.579-8.198,0.707-11.114-2.21l-70.264-70.263C140.913,321.127,135.037,318.891,129.162,318.891z"/>
	<path style="fill:#248A9C;" d="M332.024,406.958c-2.61,0-5.221-0.996-7.212-2.987c-3.983-3.983-3.983-10.441,0-14.425l2.022-2.022
		c3.983-3.982,10.441-3.982,14.425,0c3.983,3.983,3.983,10.441,0,14.425l-2.023,2.023
		C337.245,405.962,334.634,406.958,332.024,406.958z"/>
	<path style="fill:#248A9C;" d="M259.002,479.981c-2.61,0-5.22-0.996-7.212-2.987c-3.983-3.983-3.984-10.441,0-14.425l53.275-53.276
		c3.983-3.982,10.441-3.982,14.424,0c3.983,3.983,3.984,10.441,0,14.425l-53.275,53.276
		C264.223,478.985,261.612,479.981,259.002,479.981z"/>
</g>
</svg>